<svg xmlns="http://www.w3.org/2000/svg" xmlns:xlink="http://www.w3.org/1999/xlink" width="250" height="276" viewBox="0 0 250 276">
    <defs>
        <path id="a" d="M.207.177h239.037v234.197H.207z"/>
        <path id="c" d="M0 275.275h249.819V0H0z"/>
    </defs>
    <g fill="none" fill-rule="evenodd">
        <g transform="translate(10.575 21.89)">
            <mask id="b" fill="#fff">
                <use xlink:href="#a"/>
            </mask>
            <path fill="#F1F1F1" d="M227.707 35.905c14.865 17.568 13.177 48.99 7.095 74.197-6.151 25.27-16.76 44.403-31.625 67.246-14.865 22.842-33.972 49.45-59.26 55.6-25.287 6.151-56.629-8.223-84.196-31.066-27.568-22.842-51.426-54.28-57.775-91.984C-4.4 72.124 6.675 28 34.247 10.431 61.819-7.136 105.939 1.85 143.714 8.202c37.703 6.417 69.125 10.136 83.993 27.703" mask="url(#b)"/>
        </g>
        <path fill="#482E26" d="M120.364 85.317c-.576 2.813.05 22.953-.783 26.13-.833 3.177-10.08 42-10.08 42l14.708-4.065s5.156-11.332 7.026-21.535c1.646-8.98 1.409-42.373-10.871-42.53"/>
        <path fill="#000" d="M106.087 94.209h-9.543l-5.465-20.728h9.547z"/>
        <mask id="d" fill="#fff">
            <use xlink:href="#c"/>
        </mask>
        <path fill="#E0E0E0" d="M125.99 255.529h103.684V151.844H125.99z" mask="url(#d)"/>
        <path fill="#A4A4A4" d="M145.19 162.085c5.77 0 10.449 4.679 10.449 10.449s-4.678 10.448-10.448 10.448c-5.771 0-10.449-4.677-10.449-10.448 0-5.77 4.678-10.449 10.449-10.449" mask="url(#d)"/>
        <path stroke="#FFF" stroke-linecap="round" stroke-linejoin="round" stroke-width="2.04" d="M164.42 168.054h52.974M164.42 177.01h23.486M164.42 199.209h52.974M164.42 208.164h23.486M164.42 230.36h52.974M164.42 239.315h23.486" mask="url(#d)"/>
        <path fill="#FFF" d="M145.19 193.236c5.77 0 10.449 4.678 10.449 10.448 0 5.771-4.678 10.449-10.448 10.449-5.771 0-10.449-4.678-10.449-10.449 0-5.77 4.678-10.448 10.449-10.448M145.19 224.39c5.77 0 10.449 4.679 10.449 10.45 0 5.77-4.678 10.448-10.448 10.448-5.771 0-10.449-4.678-10.449-10.449 0-5.77 4.678-10.448 10.449-10.448" mask="url(#d)"/>
        <path fill="#714E46" d="M27 249.39l9.751-5.613 6.168 11.295-11.358 5.609zM98.536 243.778l2.175 12.483 13.185-2.242-4.349-14.167z" mask="url(#d)"/>
        <path fill="#007A74" d="M131.168 144.353c-3.884.211-67.602 14.048-68.431 17.293-6.823 26.615 32.149 82.487 35.013 84.179 3.088-.745 13.625-4.417 13.625-4.417l-2.42-37.254 22.213-59.801z" mask="url(#d)"/>
        <path fill="#000" d="M34.433 262.432l-7.783-16.269-21.18-20.266L0 228.909l20.969 40.186zM114.894 251.028l-17.758 3.164-25.186 15.004 1.451 6.079 44.323-9.493z" mask="url(#d)"/>
        <path fill="#008F8D" d="M180.322 127.847c2.478 1.984 5.076 10.926 5.376 13.96 3.245 35.185-54.67 55.905-62.69 59.382-7.614 6.366-74.027 55.325-78.076 56.484-4.048 1.16-10.668-14.382-10.088-16.459.579-2.077 97.918-99.928 97.918-99.928l47.56-13.44z" mask="url(#d)"/>
        <path fill="#FFE4AD" d="M133.752 64.51c-8.193-4.049-15.77 18.155-15.042 20.697.728 2.543 8.248 3.27 10.152 3.27 1.903 0 4.89-23.968 4.89-23.968" mask="url(#d)"/>
        <path fill="#FFD98E" d="M149.463 51.772c29.907 0 32.728 71.299 32.39 76.164-3.02 9.915-39.247 21.827-50.398 15.308-17.694-41.489-9.543-91.472 18.008-91.472" mask="url(#d)"/>
        <path fill="#714E46" d="M179.298 86.925c1.67 2.85 5.266 21.43 4.907 23.853-.36 2.424-5.922 8.54-7.902 8.676-28.147 1.912-58.676-9.336-64.382-12.495-11.938-.952-19.002-5.263-19.002-11.566 0-3.722 2.064-6.404 3.202-6.404 2.158 0 5.99 3.718 6.455 4.805-.93-1.912-3.85-5.423-1.447-5.423.669 0 6.092 7.58 9.036 9.42 2.944 1.84 45.435 3.385 53.955 6.481-1.087-2.165-4.133-10.017-4.184-11.15-.05-1.134 19.362-6.197 19.362-6.197" mask="url(#d)"/>
        <path fill="#008F8D" d="M80.384 42.88L96.3 39.717c1.76-.35 3.47.793 3.82 2.553l3.162 15.916a3.248 3.248 0 0 1-2.553 3.819l-15.915 3.163a3.248 3.248 0 0 1-3.82-2.553L77.83 46.7a3.25 3.25 0 0 1 2.553-3.82" mask="url(#d)"/>
        <path stroke="#FFF" stroke-linecap="round" stroke-linejoin="round" stroke-width="2.04" d="M88.689 59.124l-1.908.381c-.701.14-1.383-.315-1.522-1.016v-.003l-.89-4.45a1.299 1.299 0 0 1 1.02-1.527l1.908-.377 1.392 6.992zm2.809-9.15l-.508-2.537a1.938 1.938 0 0 0-2.284-1.527l-1.409 6.23 1.392 6.993 7.19-1.426a1.295 1.295 0 0 0 1.058-1.332l-.258-5.922a1.299 1.299 0 0 0-1.565-1.21l-3.616.732z" mask="url(#d)"/>
        <path fill="#008F8D" d="M93.815 68.807l1.98-5.83-6.04 1.202z" mask="url(#d)"/>
        <path fill="#FFE4AD" d="M158.063 57.453c12.948-4.746 23.185 25.17 22.766 28.96-.419 3.79-21.15 10.427-23.485 9.057-2.335-1.371-12.115-33.313.719-38.017" mask="url(#d)"/>
        <path fill="#482E26" d="M150.309 38.799c-.14 1.797.956 11.844 2.669 15.122-.757 1.49-8.54 5.817-12.267 4.89-.508-2.783-1.857-10.258-2.961-12.534 1.992-1.04 12.559-7.478 12.559-7.478" mask="url(#d)"/>
        <path fill="#714E46" d="M129.829 6.38c9.064-2.405 18.855 4.855 21.87 16.215 3.014 11.36-1.89 22.52-10.954 24.925-9.064 2.405-18.856-4.855-21.87-16.216-3.015-11.36 1.89-22.52 10.954-24.924" mask="url(#d)"/>
        <path fill="#000" d="M143.261 26.67c-.939.052-4.521-1.776-5.317-7.258-2.584-.423-13.98.791-19.953 5.5-2.213.845-4.006 1.552-7.352 1.552-1.587 0-2.932-1.659-2.932-2.797 0-3.134 1.345-6.171 5.275-6.374-3.308-.072-6.375-2.115-6.375-3.621 0-2.001 4.548-8.139 12.48-5.449-1.862-1.345-3.964-2.656-3.964-3.93 0-2.178 3.134-4.293 8.616-4.293 8.482 0 17.725 3.515 19.721 6.032.93-.482 2.115-1.379 4.383-1.379 5.651 0 7.546 18.308 5.101 24.446a5.365 5.365 0 0 1-1.992.774" mask="url(#d)"/>
        <path fill="#714E46" d="M143.092 27.073a4.176 4.176 0 1 1 2.115 5.14" mask="url(#d)"/>
    </g>
</svg>
