<svg xmlns="http://www.w3.org/2000/svg" xmlns:xlink="http://www.w3.org/1999/xlink" width="140" height="124" viewBox="0 0 140 124">
    <defs>
        <path id="a" d="M0 0h140v124H0z"/>
        <path id="c" d="M0 .159h139.298v116.307H0z"/>
        <path id="e" d="M0 118.957h139.298V.773H0z"/>
    </defs>
    <g fill="none" fill-rule="evenodd">
        <mask id="b" fill="#fff">
            <use xlink:href="#a"/>
        </mask>
        <g mask="url(#b)">
            <g transform="translate(0 4)">
                <g transform="translate(0 .615)">
                    <mask id="d" fill="#fff">
                        <use xlink:href="#c"/>
                    </mask>
                    <path fill="#8F8F8F" d="M136.388.159H2.91A2.91 2.91 0 0 0 0 3.069v95.065a2.91 2.91 0 0 0 2.91 2.909h51.207c-.115 1.118-1.262 11.346-5.27 12.147H29.71v3.276h78.386v-3.276H88.562c-4.007-.8-5.154-11.029-5.268-12.147h53.094a2.911 2.911 0 0 0 2.91-2.91V3.069a2.91 2.91 0 0 0-2.91-2.91" mask="url(#d)"/>
                </g>
                <path fill="#000" d="M0 88.043V3.683A2.909 2.909 0 0 1 2.91.773h133.478a2.909 2.909 0 0 1 2.91 2.91v84.36H0z"/>
                <mask id="f" fill="#fff">
                    <use xlink:href="#e"/>
                </mask>
                <path fill="#FF7900" d="M5.595 82.45h128.48V5.81H5.596z" mask="url(#f)"/>
                <path fill="#FFF" d="M15.169 77.487h.773V10.634h-.773z" mask="url(#f)"/>
                <path fill="#FFF" d="M11.46 73.621h121.284v-.773H11.461zM116.473 16.328l-8.952 2.58 2.43 2.037-14.095 14.836-12.288-8.409L59.85 49.64 46.006 39.585 17.418 66.62l2.125 2.249 26.723-25.271 13.836 10.047L83.874 31.33l12.408 8.493 16.044-16.884 2.709 2.272z" mask="url(#f)"/>
                <path fill="#595959" d="M120.445 116.82a2.143 2.143 0 0 1-2.137 2.138H75.566a2.143 2.143 0 0 1-2.137-2.138V61.255c0-1.175.962-2.138 2.137-2.138h42.742c1.176 0 2.137.963 2.137 2.138v55.565z" mask="url(#f)"/>
                <path fill="#000" d="M77.704 110.41h38.467V63.392H77.704z" mask="url(#f)"/>
                <path fill="#B5E8F7" d="M77.704 110.409h12.823v-8.548H77.704z" mask="url(#f)"/>
                <path fill="#4BB4E6" d="M90.527 110.409h12.822v-8.548H90.527z" mask="url(#f)"/>
                <path fill="#FF7900" d="M103.349 110.409h12.822v-8.548H103.35zM99.075 114.683a2.138 2.138 0 1 1-4.276-.001 2.138 2.138 0 0 1 4.276 0M109.359 85.649c0 6.673-5.41 12.085-12.084 12.085-6.674 0-12.084-5.412-12.084-12.085 0-6.673 5.41-12.084 12.084-12.084 6.673 0 12.084 5.41 12.084 12.084" mask="url(#f)"/>
                <path fill="#4BB4E6" d="M97.275 85.65l-3.858-11.452s9.894-3.329 15.005 6.779l-11.147 4.672z" mask="url(#f)"/>
                <path fill="#B5E8F7" d="M108.422 90.32l-11.147-4.67 11.147-4.673s2.086 4.088 0 9.343" mask="url(#f)"/>
            </g>
        </g>
    </g>
</svg>
